<?xml version="1.0" encoding="utf-8"?>
<!-- Generator: Adobe Illustrator 16.0.0, SVG Export Plug-In . SVG Version: 6.00 Build 0)  -->
<!DOCTYPE svg PUBLIC "-//W3C//DTD SVG 1.1//EN" "http://www.w3.org/Graphics/SVG/1.1/DTD/svg11.dtd">
<svg version="1.1" id="Capa_1" xmlns="http://www.w3.org/2000/svg" xmlns:xlink="http://www.w3.org/1999/xlink" x="0px" y="0px"
	 width="400px" height="400px" viewBox="0 0 400 400" enable-background="new 0 0 400 400" xml:space="preserve">
<polygon fill="#009542" stroke="#000000" stroke-width="5" stroke-miterlimit="10" points="73.374,173.975 271.07,96.913 
	261.802,287.5 172.047,287.5 "/>
<path fill="none" d="M359.15,199.664c0,87.766-71.148,158.906-158.908,158.906c-87.764,0-158.91-71.141-158.91-158.906
	c0-87.762,71.146-158.908,158.91-158.908C288.002,40.756,359.15,111.902,359.15,199.664z"/>
<text transform="matrix(-0.2927 -0.9562 0.9562 -0.2927 51.562 257)"><tspan x="0" y="0" font-family="'Arial-Black'" font-size="27">U</tspan><tspan x="21.895" y="-0.041" font-family="'Arial-Black'" font-size="27" rotate="7.929">N</tspan><tspan x="43.664" y="3.274" font-family="'Arial-Black'" font-size="27" rotate="13.69">I</tspan><tspan x="53.527" y="5.4" font-family="'Arial-Black'" font-size="27" rotate="19.119">V</tspan><tspan x="72.88" y="12.121" font-family="'Arial-Black'" font-size="27" rotate="26.193">E</tspan><tspan x="89.904" y="20.403" font-family="'Arial-Black'" font-size="27" rotate="33.322">R</tspan><tspan x="107" y="31.659" font-family="'Arial-Black'" font-size="27" rotate="40.475">S</tspan><tspan x="121.385" y="44.182" font-family="'Arial-Black'" font-size="27" rotate="45.751">I</tspan><tspan x="128.616" y="51.213" font-family="'Arial-Black'" font-size="27" rotate="51.268">D</tspan><tspan x="141.447" y="67.157" font-family="'Arial-Black'" font-size="27" rotate="58.605">A</tspan><tspan x="152.124" y="84.582" font-family="'Arial-Black'" font-size="27" rotate="65.918">D</tspan><tspan x="160.289" y="103.476" font-family="'Arial-Black'" font-size="27" rotate="71.153"> </tspan><tspan x="163.342" y="111.511" font-family="'Arial-Black'" font-size="27" rotate="76.397">D</tspan><tspan x="168.141" y="131.388" font-family="'Arial-Black'" font-size="27" rotate="83.514">E</tspan><tspan x="170.272" y="150.257" font-family="'Arial-Black'" font-size="27" rotate="90.133">L</tspan><tspan x="170.059" y="167.906" font-family="'Arial-Black'" font-size="27" rotate="94.908"> </tspan><tspan x="169.67" y="176.472" font-family="'Arial-Black'" font-size="27" rotate="100.432">N</tspan><tspan x="165.737" y="198.026" font-family="'Arial-Black'" font-size="27" rotate="108.224">O</tspan><tspan x="158.875" y="218.844" font-family="'Arial-Black'" font-size="27" rotate="115.799">R</tspan><tspan x="149.966" y="237.247" font-family="'Arial-Black'" font-size="27" rotate="122.932">T</tspan><tspan x="139.677" y="253.19" font-family="'Arial-Black'" font-size="27" rotate="129.817">E</tspan><tspan x="127.295" y="267.711" font-family="'Arial-Black'" font-size="27" rotate="134.828"> </tspan><tspan x="121.424" y="274.033" font-family="'Arial-Black'" font-size="27" rotate="140.096">D</tspan><tspan x="105.73" y="287.141" font-family="'Arial-Black'" font-size="27" rotate="147.163">E</tspan><tspan x="89.568" y="297.321" font-family="'Arial-Black'" font-size="27" rotate="152.129"> </tspan><tspan x="82.127" y="301.643" font-family="'Arial-Black'" font-size="27" rotate="157.618">N</tspan><tspan x="61.658" y="309.773" font-family="'Arial-Black'" font-size="27" rotate="163.377">I</tspan><tspan x="52.069" y="312.922" font-family="'Arial-Black'" font-size="27" rotate="168.9">C</tspan><tspan x="32.027" y="316.892" font-family="'Arial-Black'" font-size="27" rotate="176.294">A</tspan><tspan x="11.63" y="318.25" font-family="'Arial-Black'" font-size="27" rotate="-176.29">R</tspan><tspan x="-8.765" y="316.961" font-family="'Arial-Black'" font-size="27" rotate="-168.913">A</tspan><tspan x="-28.83" y="313.114" font-family="'Arial-Black'" font-size="27" rotate="-161.391">G</tspan><tspan x="-49.598" y="306.168" font-family="'Arial-Black'" font-size="27" rotate="-153.548">U</tspan><tspan x="-69.213" y="296.397" font-family="'Arial-Black'" font-size="27" rotate="-145.878">A</tspan></text>
<circle fill="none" stroke="#000000" stroke-width="4.6061" stroke-miterlimit="10" cx="200.243" cy="199.662" r="152"/>
<circle fill="none" stroke="#000000" stroke-width="5.7576" stroke-miterlimit="10" cx="200.243" cy="199.662" r="190"/>
<text transform="matrix(1 0 0 1 153.6035 330.9805)" font-family="'FranklinGothic-Heavy'" font-size="46.0606">UNN</text>
<path fill="#FFFFFF" stroke="#000000" stroke-width="5" stroke-miterlimit="10" d="M223.622,152.5H206.5v81.391
	c0,6.385-0.467,11.045-4.504,13.974c-3.101,2.255-6.875,3.634-12.826,4.16c-5.964-0.521-10.514-1.902-13.62-4.16
	c-4.037-2.929-6.05-7.589-6.05-13.974V152.5h-13.26H105.5v84.028v2.15c0,15.896,8.875,27.362,24.129,34.399
	c2.663,1.23,6.17,2.314,9.136,3.328c13.404,4.791,30.022,7.229,49.319,7.229c0.538,0,1.197-0.024,1.726-0.029
	c0.511,0.005,1.067,0.029,1.58,0.029c19.25,0,35.559-2.427,48.95-7.194c3.007-1.025,4.248-2.119,6.944-3.36
	c15.256-7.035,21.217-18.505,21.217-34.401v-2.15V152.5H223.622z"/>
<polygon points="262.844,147 188.44,95.056 116.14,147 174,147 174,187 202,187 202,147 "/>
</svg>
